<?xml version="1.0" standalone="no"?>
<!DOCTYPE svg PUBLIC "-//W3C//DTD SVG 20010904//EN"
 "http://www.w3.org/TR/2001/REC-SVG-20010904/DTD/svg10.dtd">
<svg version="1.0" xmlns="http://www.w3.org/2000/svg"
 width="118.000000pt" height="118.000000pt" viewBox="0 0 118.000000 118.000000"
 preserveAspectRatio="xMidYMid meet">
<metadata>
Created by potrace 1.14, written by Peter Selinger 2001-2017
</metadata>
<g transform="translate(0.000000,118.000000) scale(0.100000,-0.100000)"
fill="#000000" stroke="none">
<path d="M311 944 l-31 -26 0 -303 0 -303 36 -32 c44 -38 80 -38 78 0 -1 14
-9 45 -19 70 -25 66 -17 204 15 289 35 89 130 185 226 225 61 26 82 29 174 30
58 1 126 -3 153 -7 41 -7 47 -6 47 9 0 10 -12 31 -27 46 l-27 28 -297 0 -297
0 -31 -26z"/>
<path d="M700 754 c-60 -18 -135 -84 -168 -148 -37 -70 -38 -188 -3 -256 48
-93 81 -111 170 -94 42 9 39 17 -10 34 -57 21 -98 79 -106 151 -8 77 9 128 59
178 60 60 106 81 175 81 56 0 80 -8 135 -44 26 -17 27 -17 37 3 15 27 -4 67
-38 80 -87 34 -175 39 -251 15z"/>
<path d="M755 559 c-32 -16 -65 -72 -65 -108 0 -19 10 -49 21 -68 17 -27 27
-33 47 -31 23 3 28 9 34 47 8 49 23 71 47 71 26 0 61 -43 61 -74 0 -40 -34
-91 -70 -106 -36 -15 -38 -25 -7 -34 94 -25 164 71 138 190 -17 74 -63 116
-133 121 -29 1 -62 -2 -73 -8z"/>
</g>
</svg>
